<svg width="320" height="29" viewBox="0 0 320 29" fill="none" xmlns="http://www.w3.org/2000/svg">
<path d="M3.984 14.488C5.136 14.7013 5.95733 15.1707 6.448 15.896C6.96 16.6213 7.216 17.6667 7.216 19.032V22.648C7.216 23.544 7.344 24.1947 7.6 24.6C7.856 25.0053 8.32533 25.208 9.008 25.208H11.984V28.28H8.656C6.736 28.28 5.40267 27.864 4.656 27.032C3.93067 26.2 3.568 24.9947 3.568 23.416V18.712C3.568 17.816 3.42933 17.144 3.152 16.696C2.87467 16.2267 2.40533 15.992 1.744 15.992H0.016V12.92H1.744C2.40533 12.92 2.87467 12.696 3.152 12.248C3.42933 11.7787 3.568 11.1067 3.568 10.232V5.496C3.568 3.91733 3.93067 2.712 4.656 1.88C5.40267 1.048 6.736 0.631998 8.656 0.631998H11.984V3.704H9.008C8.32533 3.704 7.856 3.90667 7.6 4.312C7.344 4.696 7.216 5.34667 7.216 6.264V9.88C7.216 11.2453 6.96 12.2907 6.448 13.016C5.95733 13.7413 5.136 14.232 3.984 14.488ZM24.816 16.376C24.816 17.336 24.688 18.2427 24.432 19.096C24.1973 19.9493 23.792 20.696 23.216 21.336C22.6613 21.976 21.936 22.488 21.04 22.872C20.144 23.2347 19.056 23.416 17.776 23.416C16.432 23.416 15.312 23.2453 14.416 22.904C13.52 22.5627 12.7627 22.1467 12.144 21.656L13.648 18.52C14.1813 18.8613 14.768 19.192 15.408 19.512C16.0693 19.832 16.7413 19.992 17.424 19.992C18.448 19.992 19.2693 19.7253 19.888 19.192C20.528 18.6373 20.848 17.624 20.848 16.152V6.456H14.224V3.192H24.816V16.376ZM34.224 20.12C34.8853 20.12 35.4293 20.056 35.856 19.928C36.304 19.7787 36.656 19.5867 36.912 19.352C37.168 19.096 37.3387 18.8187 37.424 18.52C37.5307 18.2 37.584 17.88 37.584 17.56C37.584 17.1547 37.4667 16.792 37.232 16.472C36.9973 16.152 36.6987 15.8747 36.336 15.64C35.9733 15.384 35.568 15.16 35.12 14.968C34.672 14.7547 34.224 14.5627 33.776 14.392C33.1787 14.1787 32.56 13.9333 31.92 13.656C31.28 13.3787 30.6933 13.0267 30.16 12.6C29.648 12.1733 29.2213 11.6507 28.88 11.032C28.5387 10.392 28.368 9.60267 28.368 8.664C28.368 6.808 28.9653 5.35733 30.16 4.312C31.376 3.26667 33.04 2.744 35.152 2.744C36.368 2.744 37.424 2.88267 38.32 3.16C39.2373 3.43733 40.0053 3.74667 40.624 4.088L39.472 7.128C38.9387 6.82933 38.3413 6.57333 37.68 6.36C37.04 6.14667 36.2933 6.04 35.44 6.04C33.3493 6.04 32.304 6.79733 32.304 8.312C32.304 8.696 32.4107 9.03733 32.624 9.336C32.8373 9.61333 33.104 9.86933 33.424 10.104C33.7653 10.3173 34.1387 10.5093 34.544 10.68C34.9707 10.8507 35.3867 11.0107 35.792 11.16C36.4107 11.3947 37.0507 11.6613 37.712 11.96C38.3947 12.2373 39.0133 12.6213 39.568 13.112C40.144 13.5813 40.6133 14.1787 40.976 14.904C41.3387 15.608 41.52 16.504 41.52 17.592C41.52 19.448 40.912 20.888 39.696 21.912C38.5013 22.9147 36.6773 23.416 34.224 23.416C32.5813 23.416 31.2693 23.2453 30.288 22.904C29.3067 22.5413 28.5707 22.2107 28.08 21.912L29.232 18.712C29.808 19.0533 30.4907 19.3733 31.28 19.672C32.0907 19.9707 33.072 20.12 34.224 20.12ZM47.664 13.08C47.664 14.04 47.696 14.9467 47.76 15.8C47.8453 16.632 47.9947 17.3573 48.208 17.976C48.4427 18.5947 48.7627 19.0853 49.168 19.448C49.5733 19.8107 50.1173 19.992 50.8 19.992C51.4613 19.992 51.9947 19.8107 52.4 19.448C52.8267 19.0853 53.1467 18.5947 53.36 17.976C53.5947 17.336 53.744 16.6 53.808 15.768C53.8933 14.936 53.936 14.04 53.936 13.08C53.936 12.12 53.8933 11.224 53.808 10.392C53.744 9.53867 53.5947 8.80267 53.36 8.184C53.1467 7.56533 52.8373 7.07467 52.432 6.712C52.0267 6.34933 51.4827 6.168 50.8 6.168C50.1173 6.168 49.5733 6.34933 49.168 6.712C48.7627 7.07467 48.4427 7.576 48.208 8.216C47.9947 8.83467 47.8453 9.56 47.76 10.392C47.696 11.224 47.664 12.12 47.664 13.08ZM43.664 13.08C43.664 9.66667 44.2933 7.096 45.552 5.368C46.8107 3.61867 48.56 2.744 50.8 2.744C53.1253 2.744 54.896 3.61867 56.112 5.368C57.328 7.096 57.936 9.66667 57.936 13.08C57.936 16.4933 57.3173 19.0747 56.08 20.824C54.8427 22.552 53.0933 23.416 50.832 23.416C48.5067 23.416 46.7253 22.552 45.488 20.824C44.272 19.0747 43.664 16.4933 43.664 13.08ZM70.16 23C69.264 20.8027 68.2827 18.616 67.216 16.44C66.1707 14.2427 65.04 12.0453 63.824 9.848V23H60.272V3.192H63.44C64.0373 4.13067 64.6347 5.15467 65.232 6.264C65.8293 7.352 66.4053 8.44 66.96 9.528C67.536 10.616 68.0587 11.672 68.528 12.696C69.0187 13.72 69.4347 14.616 69.776 15.384V3.192H73.328V23H70.16ZM84.816 14.424C83.664 14.2107 82.832 13.7413 82.32 13.016C81.808 12.2907 81.552 11.2453 81.552 9.88V6.264C81.552 5.368 81.424 4.71733 81.168 4.312C80.912 3.90667 80.4427 3.704 79.76 3.704H76.816V0.631998H80.112C81.072 0.631998 81.872 0.738665 82.512 0.952C83.1733 1.16533 83.696 1.47467 84.08 1.88C84.4853 2.28533 84.7733 2.79733 84.944 3.416C85.1147 4.01333 85.2 4.70667 85.2 5.496V10.2C85.2 11.096 85.3387 11.7787 85.616 12.248C85.8933 12.696 86.3627 12.92 87.024 12.92H88.784V15.992H87.024C86.3627 15.992 85.8933 16.2267 85.616 16.696C85.3387 17.144 85.2 17.8053 85.2 18.68V23.416C85.2 24.2053 85.1147 24.8987 84.944 25.496C84.7733 26.1147 84.4853 26.6267 84.08 27.032C83.696 27.4373 83.1733 27.7467 82.512 27.96C81.872 28.1733 81.072 28.28 80.112 28.28H76.816V25.208H79.76C80.4427 25.208 80.912 25.0053 81.168 24.6C81.424 24.216 81.552 23.5653 81.552 22.648V19.032C81.552 17.6667 81.808 16.6213 82.32 15.896C82.832 15.1707 83.664 14.68 84.816 14.424ZM97.968 2.968C100.485 2.968 102.437 3.49067 103.824 4.536C105.211 5.56 105.904 7.24533 105.904 9.592C105.904 11.96 105.2 13.6773 103.792 14.744C102.405 15.7893 100.432 16.312 97.872 16.312H96.464V23H92.528V3.448C92.912 3.36267 93.3387 3.288 93.808 3.224C94.2987 3.16 94.7893 3.11733 95.28 3.096C95.7707 3.05333 96.2507 3.02133 96.72 3C97.1893 2.97867 97.6053 2.968 97.968 2.968ZM98.416 6.392C98.1813 6.392 97.8507 6.40267 97.424 6.424C97.0187 6.424 96.6987 6.44533 96.464 6.488V12.888H98.064C99.3227 12.888 100.272 12.6427 100.912 12.152C101.552 11.64 101.872 10.776 101.872 9.56C101.872 8.408 101.552 7.59733 100.912 7.128C100.293 6.63733 99.4613 6.392 98.416 6.392ZM120.144 22.36C120.08 22.4027 119.931 22.4773 119.696 22.584C119.483 22.6907 119.195 22.808 118.832 22.936C118.469 23.0427 118.021 23.1387 117.488 23.224C116.976 23.3093 116.389 23.352 115.728 23.352C113.915 23.352 112.592 22.8187 111.76 21.752C110.928 20.664 110.512 19.0853 110.512 17.016V4.248H106.352V0.983999H114.448V17.304C114.448 18.328 114.651 19.0213 115.056 19.384C115.461 19.7467 115.973 19.928 116.592 19.928C117.381 19.928 118.043 19.8213 118.576 19.608C119.109 19.3947 119.461 19.256 119.632 19.192L120.144 22.36ZM127.632 20.184C128.059 20.184 128.475 20.184 128.88 20.184C129.285 20.1627 129.637 20.1307 129.936 20.088V16.632C129.68 16.5893 129.371 16.5573 129.008 16.536C128.645 16.4933 128.315 16.472 128.016 16.472C127.611 16.472 127.216 16.504 126.832 16.568C126.448 16.6107 126.107 16.696 125.808 16.824C125.531 16.952 125.307 17.1333 125.136 17.368C124.965 17.6027 124.88 17.912 124.88 18.296C124.88 18.9787 125.136 19.4693 125.648 19.768C126.16 20.0453 126.821 20.184 127.632 20.184ZM127.28 7.576C128.517 7.576 129.541 7.72533 130.352 8.024C131.184 8.30133 131.845 8.70667 132.336 9.24C132.827 9.752 133.179 10.392 133.392 11.16C133.605 11.9067 133.712 12.7493 133.712 13.688V22.648C133.136 22.776 132.283 22.9253 131.152 23.096C130.021 23.2667 128.752 23.352 127.344 23.352C126.384 23.352 125.509 23.2667 124.72 23.096C123.952 22.9253 123.291 22.648 122.736 22.264C122.181 21.8587 121.755 21.3467 121.456 20.728C121.157 20.088 121.008 19.3093 121.008 18.392C121.008 17.5173 121.179 16.7813 121.52 16.184C121.861 15.5867 122.32 15.1067 122.896 14.744C123.472 14.3813 124.133 14.1253 124.88 13.976C125.627 13.8053 126.405 13.72 127.216 13.72C128.24 13.72 129.147 13.8053 129.936 13.976V13.496C129.936 12.7493 129.701 12.1307 129.232 11.64C128.763 11.128 127.952 10.872 126.8 10.872C126.053 10.872 125.328 10.9253 124.624 11.032C123.941 11.1387 123.387 11.2667 122.96 11.416L122.416 8.248C122.907 8.07733 123.6 7.928 124.496 7.8C125.392 7.65067 126.32 7.576 127.28 7.576ZM135.408 15.48C135.408 14.392 135.579 13.368 135.92 12.408C136.261 11.448 136.784 10.616 137.488 9.912C138.192 9.18667 139.077 8.62133 140.144 8.216C141.232 7.78933 142.523 7.576 144.016 7.576C144.912 7.576 145.723 7.64 146.448 7.768C147.173 7.896 147.909 8.10933 148.656 8.408L147.792 11.576C147.365 11.4267 146.885 11.2987 146.352 11.192C145.84 11.064 145.179 11 144.368 11C143.429 11 142.64 11.1173 142 11.352C141.381 11.5653 140.88 11.8747 140.496 12.28C140.112 12.664 139.835 13.1333 139.664 13.688C139.493 14.2427 139.408 14.84 139.408 15.48C139.408 16.8667 139.792 17.9547 140.56 18.744C141.349 19.5333 142.683 19.928 144.56 19.928C145.179 19.928 145.819 19.8853 146.48 19.8C147.163 19.7147 147.781 19.576 148.336 19.384L148.912 22.616C148.357 22.8293 147.685 23 146.896 23.128C146.107 23.2773 145.179 23.352 144.112 23.352C142.576 23.352 141.253 23.1493 140.144 22.744C139.056 22.3387 138.16 21.784 137.456 21.08C136.752 20.376 136.229 19.544 135.888 18.584C135.568 17.624 135.408 16.5893 135.408 15.48ZM149.392 15.608C149.392 14.2853 149.595 13.1227 150 12.12C150.405 11.1173 150.939 10.2853 151.6 9.624C152.261 8.94133 153.019 8.42933 153.872 8.088C154.725 7.74667 155.6 7.576 156.496 7.576C158.715 7.576 160.4 8.23733 161.552 9.56C162.704 10.8613 163.28 12.7707 163.28 15.288C163.28 15.544 163.269 15.8107 163.248 16.088C163.248 16.3653 163.237 16.5893 163.216 16.76H153.456C153.456 17.7413 153.861 18.52 154.672 19.096C155.483 19.6507 156.528 19.928 157.808 19.928C158.597 19.928 159.344 19.8427 160.048 19.672C160.773 19.5013 161.381 19.3307 161.872 19.16L162.416 22.52C161.733 22.7547 161.008 22.9467 160.24 23.096C159.472 23.2667 158.608 23.352 157.648 23.352C156.368 23.352 155.216 23.192 154.192 22.872C153.189 22.5307 152.325 22.04 151.6 21.4C150.896 20.7387 150.352 19.928 149.968 18.968C149.584 18.008 149.392 16.888 149.392 15.608ZM159.472 14.04C159.472 13.6347 159.419 13.2507 159.312 12.888C159.205 12.504 159.035 12.1627 158.8 11.864C158.565 11.5653 158.267 11.3307 157.904 11.16C157.541 10.968 157.093 10.872 156.56 10.872C156.048 10.872 155.6 10.9573 155.216 11.128C154.853 11.2987 154.544 11.5333 154.288 11.832C154.053 12.1307 153.861 12.472 153.712 12.856C153.584 13.24 153.499 13.6347 153.456 14.04H159.472ZM164.816 23V1.464L168.752 0.792V8.088C169.072 7.98133 169.456 7.88533 169.904 7.8C170.352 7.69333 170.747 7.64 171.088 7.64C172.197 7.64 173.125 7.81067 173.872 8.152C174.619 8.472 175.216 8.94133 175.664 9.56C176.112 10.1573 176.432 10.8827 176.624 11.736C176.816 12.568 176.912 13.496 176.912 14.52V23H172.976V15.032C172.976 13.624 172.816 12.6107 172.496 11.992C172.176 11.3733 171.568 11.064 170.672 11.064C170.309 11.064 169.947 11.1067 169.584 11.192C169.243 11.2773 168.965 11.352 168.752 11.416V23H164.816ZM192.304 15.448C192.304 16.6427 192.133 17.7307 191.792 18.712C191.451 19.672 190.971 20.504 190.352 21.208C189.733 21.912 188.987 22.456 188.112 22.84C187.259 23.224 186.299 23.416 185.232 23.416C184.165 23.416 183.195 23.224 182.32 22.84C181.467 22.456 180.72 21.912 180.08 21.208C179.461 20.504 178.981 19.672 178.64 18.712C178.299 17.7307 178.128 16.6427 178.128 15.448C178.128 14.2747 178.299 13.208 178.64 12.248C179.003 11.2667 179.493 10.4347 180.112 9.752C180.752 9.048 181.509 8.51467 182.384 8.152C183.259 7.768 184.208 7.576 185.232 7.576C186.277 7.576 187.227 7.768 188.08 8.152C188.955 8.51467 189.701 9.048 190.32 9.752C190.96 10.4347 191.451 11.2667 191.792 12.248C192.133 13.208 192.304 14.2747 192.304 15.448ZM182.128 15.48C182.128 16.824 182.363 17.912 182.832 18.744C183.323 19.576 184.101 19.992 185.168 19.992C186.192 19.992 186.96 19.576 187.472 18.744C188.005 17.912 188.272 16.824 188.272 15.48C188.272 14.136 188.027 13.0587 187.536 12.248C187.067 11.416 186.299 11 185.232 11C184.208 11 183.429 11.416 182.896 12.248C182.384 13.0587 182.128 14.136 182.128 15.48ZM204.944 22.36C204.88 22.4027 204.731 22.4773 204.496 22.584C204.283 22.6907 203.995 22.808 203.632 22.936C203.269 23.0427 202.821 23.1387 202.288 23.224C201.776 23.3093 201.189 23.352 200.528 23.352C198.715 23.352 197.392 22.8187 196.56 21.752C195.728 20.664 195.312 19.0853 195.312 17.016V4.248H191.152V0.983999H199.248V17.304C199.248 18.328 199.451 19.0213 199.856 19.384C200.261 19.7467 200.773 19.928 201.392 19.928C202.181 19.928 202.843 19.8213 203.376 19.608C203.909 19.3947 204.261 19.256 204.432 19.192L204.944 22.36ZM209.296 15.384C209.296 16.728 209.541 17.8267 210.032 18.68C210.544 19.5333 211.355 19.96 212.464 19.96C212.784 19.96 213.083 19.9493 213.36 19.928C213.637 19.9067 213.925 19.8747 214.224 19.832V11.64C213.925 11.4693 213.584 11.3307 213.2 11.224C212.816 11.096 212.411 11.032 211.984 11.032C211.045 11.032 210.363 11.4053 209.936 12.152C209.509 12.8987 209.296 13.976 209.296 15.384ZM218.16 22.552C217.435 22.7867 216.549 22.9787 215.504 23.128C214.459 23.2773 213.435 23.352 212.432 23.352C210.085 23.352 208.304 22.6587 207.088 21.272C205.893 19.8853 205.296 17.9867 205.296 15.576C205.296 13.1227 205.797 11.192 206.8 9.784C207.824 8.35467 209.328 7.64 211.312 7.64C211.845 7.64 212.368 7.704 212.88 7.832C213.392 7.93867 213.84 8.09867 214.224 8.312V1.464L218.16 0.792V22.552ZM219.792 15.608C219.792 14.2853 219.995 13.1227 220.4 12.12C220.805 11.1173 221.339 10.2853 222 9.624C222.661 8.94133 223.419 8.42933 224.272 8.088C225.125 7.74667 226 7.576 226.896 7.576C229.115 7.576 230.8 8.23733 231.952 9.56C233.104 10.8613 233.68 12.7707 233.68 15.288C233.68 15.544 233.669 15.8107 233.648 16.088C233.648 16.3653 233.637 16.5893 233.616 16.76H223.856C223.856 17.7413 224.261 18.52 225.072 19.096C225.883 19.6507 226.928 19.928 228.208 19.928C228.997 19.928 229.744 19.8427 230.448 19.672C231.173 19.5013 231.781 19.3307 232.272 19.16L232.816 22.52C232.133 22.7547 231.408 22.9467 230.64 23.096C229.872 23.2667 229.008 23.352 228.048 23.352C226.768 23.352 225.616 23.192 224.592 22.872C223.589 22.5307 222.725 22.04 222 21.4C221.296 20.7387 220.752 19.928 220.368 18.968C219.984 18.008 219.792 16.888 219.792 15.608ZM229.872 14.04C229.872 13.6347 229.819 13.2507 229.712 12.888C229.605 12.504 229.435 12.1627 229.2 11.864C228.965 11.5653 228.667 11.3307 228.304 11.16C227.941 10.968 227.493 10.872 226.96 10.872C226.448 10.872 226 10.9573 225.616 11.128C225.253 11.2987 224.944 11.5333 224.688 11.832C224.453 12.1307 224.261 12.472 224.112 12.856C223.984 13.24 223.899 13.6347 223.856 14.04H229.872ZM247.184 11.96C246.928 11.896 246.619 11.832 246.256 11.768C245.915 11.704 245.563 11.6507 245.2 11.608C244.837 11.544 244.485 11.5013 244.144 11.48C243.803 11.4587 243.515 11.448 243.28 11.448C242.725 11.448 242.181 11.48 241.648 11.544C241.115 11.5867 240.571 11.6827 240.016 11.832V23H236.048V8.952C237.093 8.568 238.16 8.25867 239.248 8.024C240.357 7.78933 241.648 7.672 243.12 7.672C243.333 7.672 243.632 7.68267 244.016 7.704C244.421 7.72533 244.848 7.768 245.296 7.832C245.744 7.87467 246.192 7.93867 246.64 8.024C247.109 8.088 247.525 8.184 247.888 8.312L247.184 11.96ZM254.768 2.968C257.285 2.968 259.237 3.49067 260.624 4.536C262.011 5.56 262.704 7.24533 262.704 9.592C262.704 11.96 262 13.6773 260.592 14.744C259.205 15.7893 257.232 16.312 254.672 16.312H253.264V23H249.328V3.448C249.712 3.36267 250.139 3.288 250.608 3.224C251.099 3.16 251.589 3.11733 252.08 3.096C252.571 3.05333 253.051 3.02133 253.52 3C253.989 2.97867 254.405 2.968 254.768 2.968ZM255.216 6.392C254.981 6.392 254.651 6.40267 254.224 6.424C253.819 6.424 253.499 6.44533 253.264 6.488V12.888H254.864C256.123 12.888 257.072 12.6427 257.712 12.152C258.352 11.64 258.672 10.776 258.672 9.56C258.672 8.408 258.352 7.59733 257.712 7.128C257.093 6.63733 256.261 6.392 255.216 6.392ZM277.104 15.448C277.104 16.6427 276.933 17.7307 276.592 18.712C276.251 19.672 275.771 20.504 275.152 21.208C274.533 21.912 273.787 22.456 272.912 22.84C272.059 23.224 271.099 23.416 270.032 23.416C268.965 23.416 267.995 23.224 267.12 22.84C266.267 22.456 265.52 21.912 264.88 21.208C264.261 20.504 263.781 19.672 263.44 18.712C263.099 17.7307 262.928 16.6427 262.928 15.448C262.928 14.2747 263.099 13.208 263.44 12.248C263.803 11.2667 264.293 10.4347 264.912 9.752C265.552 9.048 266.309 8.51467 267.184 8.152C268.059 7.768 269.008 7.576 270.032 7.576C271.077 7.576 272.027 7.768 272.88 8.152C273.755 8.51467 274.501 9.048 275.12 9.752C275.76 10.4347 276.251 11.2667 276.592 12.248C276.933 13.208 277.104 14.2747 277.104 15.448ZM266.928 15.48C266.928 16.824 267.163 17.912 267.632 18.744C268.123 19.576 268.901 19.992 269.968 19.992C270.992 19.992 271.76 19.576 272.272 18.744C272.805 17.912 273.072 16.824 273.072 15.48C273.072 14.136 272.827 13.0587 272.336 12.248C271.867 11.416 271.099 11 270.032 11C269.008 11 268.229 11.416 267.696 12.248C267.184 13.0587 266.928 14.136 266.928 15.48ZM283.696 20.024C284.656 20.024 285.392 19.96 285.904 19.832C286.416 19.6827 286.672 19.3947 286.672 18.968C286.672 18.6907 286.587 18.456 286.416 18.264C286.267 18.072 286.043 17.912 285.744 17.784C285.467 17.6347 285.136 17.496 284.752 17.368C284.389 17.24 284.005 17.112 283.6 16.984C283.024 16.8133 282.437 16.6213 281.84 16.408C281.243 16.1733 280.699 15.8853 280.208 15.544C279.717 15.2027 279.312 14.776 278.992 14.264C278.672 13.7307 278.512 13.0693 278.512 12.28C278.512 11.64 278.629 11.0427 278.864 10.488C279.12 9.912 279.504 9.41067 280.016 8.984C280.549 8.536 281.221 8.19467 282.032 7.96C282.843 7.704 283.813 7.576 284.944 7.576C285.925 7.576 286.832 7.65067 287.664 7.8C288.517 7.94933 289.253 8.16267 289.872 8.44L289.264 11.768C288.901 11.6613 288.336 11.4907 287.568 11.256C286.8 11 285.936 10.872 284.976 10.872C283.973 10.872 283.291 11 282.928 11.256C282.587 11.4907 282.416 11.7467 282.416 12.024C282.416 12.2587 282.491 12.472 282.64 12.664C282.811 12.8347 283.024 12.9947 283.28 13.144C283.557 13.2933 283.867 13.4427 284.208 13.592C284.571 13.72 284.955 13.848 285.36 13.976C285.936 14.168 286.533 14.3813 287.152 14.616C287.771 14.8507 288.325 15.1493 288.816 15.512C289.328 15.8533 289.744 16.3013 290.064 16.856C290.384 17.3893 290.544 18.0507 290.544 18.84C290.544 19.4587 290.427 20.0453 290.192 20.6C289.957 21.1547 289.563 21.6347 289.008 22.04C288.475 22.4453 287.771 22.7653 286.896 23C286.021 23.2347 284.944 23.352 283.664 23.352C282.363 23.352 281.253 23.2027 280.336 22.904C279.419 22.6053 278.683 22.3387 278.128 22.104L278.736 18.808C279.483 19.1067 280.272 19.384 281.104 19.64C281.957 19.896 282.821 20.024 283.696 20.024ZM295.376 11.224H291.952V7.96H295.376V4.184L299.312 3.544V7.96H305.616V11.224H299.312V17.304C299.312 17.8587 299.365 18.3067 299.472 18.648C299.579 18.9893 299.728 19.256 299.92 19.448C300.112 19.64 300.347 19.768 300.624 19.832C300.901 19.896 301.211 19.928 301.552 19.928C301.915 19.928 302.245 19.9173 302.544 19.896C302.864 19.8747 303.163 19.8427 303.44 19.8C303.739 19.736 304.037 19.6507 304.336 19.544C304.656 19.4373 304.997 19.2987 305.36 19.128L305.904 22.52C305.179 22.8187 304.389 23.032 303.536 23.16C302.704 23.288 301.893 23.352 301.104 23.352C300.187 23.352 299.376 23.2773 298.672 23.128C297.968 22.9787 297.371 22.6907 296.88 22.264C296.389 21.8373 296.016 21.24 295.76 20.472C295.504 19.6827 295.376 18.6587 295.376 17.4V11.224ZM312.496 20.024C313.456 20.024 314.192 19.96 314.704 19.832C315.216 19.6827 315.472 19.3947 315.472 18.968C315.472 18.6907 315.387 18.456 315.216 18.264C315.067 18.072 314.843 17.912 314.544 17.784C314.267 17.6347 313.936 17.496 313.552 17.368C313.189 17.24 312.805 17.112 312.4 16.984C311.824 16.8133 311.237 16.6213 310.64 16.408C310.043 16.1733 309.499 15.8853 309.008 15.544C308.517 15.2027 308.112 14.776 307.792 14.264C307.472 13.7307 307.312 13.0693 307.312 12.28C307.312 11.64 307.429 11.0427 307.664 10.488C307.92 9.912 308.304 9.41067 308.816 8.984C309.349 8.536 310.021 8.19467 310.832 7.96C311.643 7.704 312.613 7.576 313.744 7.576C314.725 7.576 315.632 7.65067 316.464 7.8C317.317 7.94933 318.053 8.16267 318.672 8.44L318.064 11.768C317.701 11.6613 317.136 11.4907 316.368 11.256C315.6 11 314.736 10.872 313.776 10.872C312.773 10.872 312.091 11 311.728 11.256C311.387 11.4907 311.216 11.7467 311.216 12.024C311.216 12.2587 311.291 12.472 311.44 12.664C311.611 12.8347 311.824 12.9947 312.08 13.144C312.357 13.2933 312.667 13.4427 313.008 13.592C313.371 13.72 313.755 13.848 314.16 13.976C314.736 14.168 315.333 14.3813 315.952 14.616C316.571 14.8507 317.125 15.1493 317.616 15.512C318.128 15.8533 318.544 16.3013 318.864 16.856C319.184 17.3893 319.344 18.0507 319.344 18.84C319.344 19.4587 319.227 20.0453 318.992 20.6C318.757 21.1547 318.363 21.6347 317.808 22.04C317.275 22.4453 316.571 22.7653 315.696 23C314.821 23.2347 313.744 23.352 312.464 23.352C311.163 23.352 310.053 23.2027 309.136 22.904C308.219 22.6053 307.483 22.3387 306.928 22.104L307.536 18.808C308.283 19.1067 309.072 19.384 309.904 19.64C310.757 19.896 311.621 20.024 312.496 20.024Z" fill="#1E1B19"/>
</svg>
